<svg xmlns="http://www.w3.org/2000/svg" viewBox="0 0 1600 1000" width="1600" height="1000" role="img" aria-label="HardsTech placeholder thumbnail">
  <defs>
    <pattern id="g1" width="80" height="80" patternUnits="userSpaceOnUse">
      <path d="M80 0H0V80" fill="none" stroke="#E8E8EC" stroke-width="1.5"/>
    </pattern>
    <radialGradient id="b1" cx="50%" cy="50%" r="50%">
      <stop offset="0%" stop-color="#0071E3" stop-opacity="0.09"/>
      <stop offset="100%" stop-color="#0071E3" stop-opacity="0"/>
    </radialGradient>
  </defs>

  <rect width="1600" height="1000" fill="#F5F5F7"/>
  <rect width="1600" height="1000" fill="url(#g1)" opacity="0.6"/>
  <circle cx="1240" cy="240" r="440" fill="url(#b1)"/>

  <!-- Storefront frame -->
  <rect x="220" y="180" width="1160" height="640" rx="28" fill="#FFFFFF" stroke="#E5E5E5" stroke-width="2"/>
  <path d="M220 262h1160" stroke="#EEEEF0" stroke-width="2"/>
  <circle cx="266" cy="221" r="7" fill="#DCDCE2"/>
  <circle cx="292" cy="221" r="7" fill="#E6E6EB"/>
  <circle cx="318" cy="221" r="7" fill="#EEEEF2"/>

  <!-- Product grid -->
  <g fill="#F2F2F5" stroke="#EDEDF1" stroke-width="1.5">
    <rect x="272" y="320" width="320" height="200" rx="16"/>
    <rect x="640" y="320" width="320" height="200" rx="16"/>
    <rect x="1008" y="320" width="320" height="200" rx="16"/>
  </g>
  <g fill="#E4E4EA">
    <rect x="272" y="548" width="212" height="16" rx="8"/>
    <rect x="640" y="548" width="248" height="16" rx="8"/>
    <rect x="1008" y="548" width="188" height="16" rx="8"/>
  </g>
  <g fill="#EEEEF2">
    <rect x="272" y="588" width="140" height="14" rx="7"/>
    <rect x="640" y="588" width="164" height="14" rx="7"/>
    <rect x="1008" y="588" width="124" height="14" rx="7"/>
  </g>

  <rect x="272" y="672" width="200" height="52" rx="26" fill="#1D1D1F"/>
  <rect x="1236" y="672" width="92" height="52" rx="26" fill="#0071E3" opacity="0.16"/>

  <g font-family="Inter, -apple-system, BlinkMacSystemFont, 'Segoe UI', system-ui, sans-serif" fill="#86868B">
    <text x="220" y="906" font-size="34" font-weight="600" letter-spacing="-0.5" fill="#6E6E73">HardsTech</text>
    <text x="220" y="950" font-size="24" font-weight="400">Replace with a real screenshot</text>
  </g>
</svg>
